<svg id="Layer_1" data-name="Layer 1" xmlns="http://www.w3.org/2000/svg" viewBox="0 0 48 48"><defs><style>.cls-1{fill:#113e23;}</style></defs><path class="cls-1" d="M15.39,18.86a3.14,3.14,0,0,1-2.23-5.37,3.13,3.13,0,0,1,4.45,0,3.11,3.11,0,0,1,0,4.44A3,3,0,0,1,15.39,18.86ZM11.63,41.27a2.06,2.06,0,0,1-1.38-.5,1.51,1.51,0,0,1-.61-1.23A2.58,2.58,0,0,1,7.05,37V25.73h5.18V24.52a3.69,3.69,0,0,1,3.67-3.67,4.09,4.09,0,0,1,1.56.3,3.5,3.5,0,0,1,1.29.91L21,24.6a7.41,7.41,0,0,0,.62.63,6.13,6.13,0,0,0,.67.5h12.4V11.31a2,2,0,0,0-.54-1.41,1.78,1.78,0,0,0-1.36-.58,3.62,3.62,0,0,0-.82.09,1.32,1.32,0,0,0-.69.38L29,12a3,3,0,0,1,.06,1.49A5.17,5.17,0,0,1,28.56,15l-4.41-4.19a3.68,3.68,0,0,1,1.51-.61,3,3,0,0,1,1.6.18L29.5,8.15a5.3,5.3,0,0,1,1.49-1,4.43,4.43,0,0,1,5,1,4.46,4.46,0,0,1,1.3,3.24V25.73h4.31V37A2.56,2.56,0,0,1,39,39.54a1.53,1.53,0,0,1-.6,1.23,2.13,2.13,0,0,1-1.43.5Z"/></svg>