<svg id="Layer_1" data-name="Layer 1" xmlns="http://www.w3.org/2000/svg" viewBox="0 0 48 48"><defs><style>.cls-1{fill:#113e23;}</style></defs><path class="cls-1" d="M5.64,19.13c.49-1.32,1.65-1.33,2.9-1a1.4,1.4,0,0,1,.94,1.12c.61,2.29,1.23,4.58,1.83,6.87.07.27.18.33.44.33h4.08a2.33,2.33,0,0,1,2.49,1.92,6.46,6.46,0,0,1,.18.76,1.5,1.5,0,0,1-1.35,1.78l-.17,0c.21.86.42,1.7.64,2.55.26,1.05.53,2.1.79,3.16.15.63-.19,1.1-.76,1.08a.76.76,0,0,1-.71-.64q-.68-2.68-1.34-5.39c-.2-.79-.2-.79-1-.79H10c-.16.74-.33,1.48-.49,2.22L8.61,37a.77.77,0,1,1-1.48-.35c.42-2,.86-3.89,1.27-5.79a11.85,11.85,0,0,1-1-.8,2.76,2.76,0,0,1-.6-1.74C6.51,26.22,6.24,24.13,6,22l-.24-1.82a2.81,2.81,0,0,0-.08-.31Z"/><path class="cls-1" d="M39.25,30.75c.43,2,.86,3.93,1.29,5.88a.78.78,0,0,1-.53,1,.79.79,0,0,1-1-.71l-1.29-5.81c0-.09,0-.18-.08-.28H34.3c-.58,0-1.16,0-1.74,0-.22,0-.3.06-.36.28Q31.51,34,30.8,36.8l-.06.21a.78.78,0,0,1-1,.65.8.8,0,0,1-.52-1L30,33.75l.66-2.61,0-.23A4.18,4.18,0,0,1,30,30.7a1.52,1.52,0,0,1-.8-1.76c0-.24.13-.48.19-.72a2.27,2.27,0,0,1,2.32-1.81c1.39,0,2.79,0,4.19,0,.28,0,.4-.06.48-.36q.9-3.4,1.82-6.8A1.54,1.54,0,0,1,39.83,18h.6A1.54,1.54,0,0,1,42,19.83c-.4,3-.79,6-1.21,9A2.26,2.26,0,0,1,39.25,30.75Z"/><path class="cls-1" d="M24.64,11.91c-.09.76-.08.75.58.89a7.46,7.46,0,0,1,6,5.53c0,.12,0,.23.08.38H16.41a7.44,7.44,0,0,1,2.35-4.09,7.61,7.61,0,0,1,4.29-1.92c0-.14,0-.26,0-.39s0-.23,0-.4h-.73a.75.75,0,0,1-.77-.79.76.76,0,0,1,.81-.73h2.94a.75.75,0,0,1,.8.73.73.73,0,0,1-.75.77C25.13,11.92,24.89,11.91,24.64,11.91Zm-1.22,3.33c0-.63-.4-1-.85-.91a5.91,5.91,0,0,0-3.52,2.21.75.75,0,0,0,1.14,1,4.92,4.92,0,0,1,2.69-1.72A.64.64,0,0,0,23.42,15.24Z"/><path class="cls-1" d="M23.48,23.28h-10a.9.9,0,0,1-.85-.32,4.47,4.47,0,0,1,0-2.38,1.25,1.25,0,0,1,.49-.31,1.33,1.33,0,0,1,.45,0H33.7a.71.71,0,0,1,.74.74q0,.77,0,1.53a.73.73,0,0,1-.76.76H23.48Z"/><path class="cls-1" d="M22.31,24.81h3.05v.47c0,2.89,0,5.78,0,8.67a1.13,1.13,0,0,0,.6,1.1c.44.25.86.55,1.28.84a1.1,1.1,0,0,1,.36,1.27c-.11.35-.4.52-.91.52H21c-.47,0-.77-.17-.88-.51a1.11,1.11,0,0,1,.35-1.27c.45-.3.88-.61,1.34-.88a1.08,1.08,0,0,0,.55-1q0-4.35,0-8.7Z"/></svg>