<svg id="Layer_1" data-name="Layer 1" xmlns="http://www.w3.org/2000/svg" viewBox="0 0 48 48"><defs><style>.cls-1{fill:#113e23;}</style></defs><path class="cls-1" d="M33.17,39.85H21.42c0-.06,0-.12,0-.18a5.77,5.77,0,0,0-4.37-5.44c-.46-.11-.94-.16-1.42-.23V14.07c3.54-.39,5.49-2.32,5.86-5.84H33.16A5.87,5.87,0,0,0,39,14V34A5.88,5.88,0,0,0,33.17,39.85Zm-1.28-21a2.79,2.79,0,0,0,1.56-4,2.68,2.68,0,0,0-1.69-1.34,2.79,2.79,0,0,0-2.59.58,2.84,2.84,0,0,0-3.72,0,2.79,2.79,0,1,0-2.74,4.74,2.44,2.44,0,0,1,0,.27,2.73,2.73,0,0,0,1.6,2.81c.25.11.28.22.26.46a2.74,2.74,0,0,0,1.75,2.83,2.77,2.77,0,0,0,3.19-.88A2.84,2.84,0,0,0,30,22,2.83,2.83,0,0,0,31.89,18.82ZM30.08,32.76a2.78,2.78,0,1,0-2.78,2.77A2.8,2.8,0,0,0,30.08,32.76Z"/><path class="cls-1" d="M7.33,10.8c.29-.56.6-.76,1.07-.68a.91.91,0,0,1,.78.86v22.2a.92.92,0,0,1-1.12,1,1,1,0,0,1-.73-.67Z"/><path class="cls-1" d="M16.29,39.85a1.23,1.23,0,0,1-.67-1.29c0-.87,0-1.74,0-2.65a3.15,3.15,0,0,1,1.53.29,3.91,3.91,0,0,1,2.42,3.26c0,.13,0,.26.05.39Z"/><path class="cls-1" d="M35,39.85a3.93,3.93,0,0,1,4-3.93v.51c0,.74,0,1.48,0,2.22a1.1,1.1,0,0,1-.68,1.2Z"/><path class="cls-1" d="M11,25.92v-11a.92.92,0,0,1,1.05-1,.9.9,0,0,1,.79.82,1.48,1.48,0,0,1,0,.21v22A.94.94,0,0,1,12,38,.92.92,0,0,1,11,37c0-2.27,0-4.54,0-6.8Z"/><path class="cls-1" d="M19.58,8.21a3.9,3.9,0,0,1-3.95,3.93v-.39c0-.84,0-1.67,0-2.5a.94.94,0,0,1,1-1Z"/><path class="cls-1" d="M39,12.13A3.88,3.88,0,0,1,35,8.23l.26,0H38a.92.92,0,0,1,1,1v3Z"/><path class="cls-1" d="M23.58,15.25a.9.9,0,0,1,.94.89.92.92,0,0,1-.91,1,1,1,0,0,1-.95-.93A.92.92,0,0,1,23.58,15.25Z"/><path class="cls-1" d="M28.23,16.17a.92.92,0,0,1-.91.93.93.93,0,1,1,0-1.86A.92.92,0,0,1,28.23,16.17Z"/><path class="cls-1" d="M31.94,16.17a.92.92,0,0,1-.94.93,1,1,0,0,1-.92-.93,1,1,0,0,1,1-.93A.92.92,0,0,1,31.94,16.17Z"/><path class="cls-1" d="M26.38,19.37a1,1,0,0,1-.9.95,1,1,0,0,1-1-.93.93.93,0,0,1,1.86,0Z"/><path class="cls-1" d="M30.09,19.38a.93.93,0,0,1-.94.94,1,1,0,0,1-.92-.93.92.92,0,0,1,.94-.93A.91.91,0,0,1,30.09,19.38Z"/><path class="cls-1" d="M27.3,21.68a.93.93,0,1,1,0,1.85.93.93,0,1,1,0-1.85Z"/><path class="cls-1" d="M27.31,31.82a.93.93,0,0,1,0,1.85.93.93,0,1,1,0-1.85Z"/></svg>