<svg id="Layer_1" data-name="Layer 1" xmlns="http://www.w3.org/2000/svg" viewBox="0 0 48 48"><defs><style>.cls-1{fill:#113e23;}.cls-2{fill:none;stroke:#133e24;stroke-miterlimit:10;}</style></defs><path class="cls-1" d="M31.2,36.2H21.86c0-.05,0-.1,0-.15a4.6,4.6,0,0,0-3.48-4.32c-.37-.09-.75-.13-1.12-.19V15.7a4.72,4.72,0,0,0,4.65-4.64h9.27a4.68,4.68,0,0,0,4.62,4.61V31.56A4.66,4.66,0,0,0,31.2,36.2Zm-1-16.72a2.22,2.22,0,0,0,1.24-3.16,2.13,2.13,0,0,0-1.35-1.07,2.23,2.23,0,0,0-2.06.46,2.26,2.26,0,0,0-3,0,2.22,2.22,0,1,0-2.17,3.77,1.7,1.7,0,0,1,0,.22,2.18,2.18,0,0,0,1.27,2.23c.2.08.22.18.2.36a2.2,2.2,0,0,0,3.93,1.55,2.24,2.24,0,0,0,.43-1.8A2.27,2.27,0,0,0,30.19,19.48ZM28.75,30.56a2.21,2.21,0,1,0-2.21,2.2A2.22,2.22,0,0,0,28.75,30.56Z"/><path class="cls-1" d="M10.65,13.11c.24-.45.48-.61.86-.55a.73.73,0,0,1,.62.68V30.89a.74.74,0,0,1-.89.79.86.86,0,0,1-.59-.54Z"/><path class="cls-1" d="M17.78,36.2a1,1,0,0,1-.53-1c0-.69,0-1.38,0-2.1a2.42,2.42,0,0,1,1.23.23,3.09,3.09,0,0,1,1.91,2.58c0,.11,0,.22.05.32Z"/><path class="cls-1" d="M32.67,36.2a3.13,3.13,0,0,1,3.15-3.13v.41c0,.58,0,1.17,0,1.76a.88.88,0,0,1-.54,1Z"/><path class="cls-1" d="M13.6,25.12V16.35a.74.74,0,0,1,1.47-.14,1,1,0,0,1,0,.17V33.87a.74.74,0,1,1-1.48,0V25.12Z"/><path class="cls-1" d="M20.4,11a3.1,3.1,0,0,1-3.15,3.12V11.87a.76.76,0,0,1,.83-.83Z"/><path class="cls-1" d="M35.82,14.16a3.08,3.08,0,0,1-3.13-3.1l.21,0H35a.73.73,0,0,1,.79.77v2.35Z"/><path class="cls-1" d="M23.58,16.64a.72.72,0,0,1,.75.71.73.73,0,0,1-.73.76.75.75,0,0,1-.75-.74A.73.73,0,0,1,23.58,16.64Z"/><path class="cls-1" d="M27.28,17.37a.74.74,0,0,1-.73.74.75.75,0,0,1-.75-.74.74.74,0,0,1,1.48,0Z"/><path class="cls-1" d="M30.23,17.37a.73.73,0,0,1-.75.74.76.76,0,0,1-.73-.74.73.73,0,0,1,.75-.73A.72.72,0,0,1,30.23,17.37Z"/><path class="cls-1" d="M25.8,19.92a.73.73,0,0,1-.71.75.76.76,0,0,1-.77-.73.75.75,0,0,1,.75-.75A.72.72,0,0,1,25.8,19.92Z"/><path class="cls-1" d="M28.75,19.93a.73.73,0,0,1-.75.74.76.76,0,0,1-.73-.74.75.75,0,0,1,.76-.74A.73.73,0,0,1,28.75,19.93Z"/><path class="cls-1" d="M26.54,21.75a.73.73,0,0,1,.74.72.74.74,0,1,1-1.48,0A.74.74,0,0,1,26.54,21.75Z"/><path class="cls-1" d="M26.54,29.81a.74.74,0,1,1,0,1.48.75.75,0,0,1-.74-.73A.74.74,0,0,1,26.54,29.81Z"/><circle class="cls-2" cx="24.36" cy="24" r="23"/></svg>