<svg id="Layer_1" data-name="Layer 1" xmlns="http://www.w3.org/2000/svg" viewBox="0 0 48 48"><defs><style>.cls-1{fill:#113e23;}</style></defs><path class="cls-1" d="M17.6,22.58H30.31c.22,1.23.44,2.43.65,3.64.49,2.73,1,5.46,1.45,8.19a3,3,0,0,1-2.78,3.7,40.12,40.12,0,0,1-7,.34c-1.56-.07-3.11-.22-4.66-.41a3,3,0,0,1-2.5-3.43C16.16,30.61,16.88,26.61,17.6,22.58Zm.68,6.25c0,.61,0,1.18,0,1.74a2.26,2.26,0,0,0,2.23,2.22c2.3,0,4.59,0,6.89,0a2.17,2.17,0,0,0,2.18-1.9,15.71,15.71,0,0,0,0-2.06Zm0-1.17H29.61V26H18.29Z"/><path class="cls-1" d="M17.7,8.43v3.1a2.88,2.88,0,0,0,3.09,3.08h6.35a2.87,2.87,0,0,0,3.07-3.06V8.47l.09,0c.54,0,.76.3.88.82.31,1.28.7,2.55,1,3.83a9.27,9.27,0,0,1-1,7c-.25.44-.41,1.05-.79,1.27s-1,.07-1.49.08H17.79a.5.5,0,0,1-.5-.28,13.91,13.91,0,0,1-1.57-3.44,9.79,9.79,0,0,1,.09-5c.34-1.19.67-2.38,1-3.58.1-.37.25-.59.64-.6A1.29,1.29,0,0,0,17.7,8.43Z"/><path class="cls-1" d="M31.8,24.35a1.67,1.67,0,0,1,1.11,2.29c-.21.5-.2.57.18,1a1.6,1.6,0,0,1,.36,1.92.69.69,0,0,0,.19.9A1.61,1.61,0,0,1,34,32.37a.67.67,0,0,0,.17.88,1.63,1.63,0,0,1,.23,2.24.68.68,0,0,0,0,.87,1.65,1.65,0,0,1,0,2,1.69,1.69,0,0,1-1.89.62c-.46-.13-.6-.07-.85.33a1.67,1.67,0,0,1-2.5.53.6.6,0,0,0-1,.17,1.68,1.68,0,0,1-2.41.42.64.64,0,0,0-.84,0,1.64,1.64,0,0,1-2,0,.65.65,0,0,0-.84,0,1.66,1.66,0,0,1-2.4-.42c-.31-.41-.57-.46-1-.16a1.67,1.67,0,0,1-2.5-.54c-.25-.4-.39-.46-.85-.33a1.68,1.68,0,0,1-1.89-.63,1.66,1.66,0,0,1,0-2,.67.67,0,0,0,0-.87,1.62,1.62,0,0,1,.24-2.24.68.68,0,0,0,.16-.89,1.58,1.58,0,0,1,.39-1.94.7.7,0,0,0,.18-.91,1.59,1.59,0,0,1,.36-1.91c.38-.38.4-.46.18-1a1.67,1.67,0,0,1,1.14-2.29c-.08.48-.16.94-.24,1.4-.51,2.83-1,5.66-1.52,8.5a4.15,4.15,0,0,0,3.71,5,42.94,42.94,0,0,0,9.41.26,18.68,18.68,0,0,0,3-.39,4.15,4.15,0,0,0,3-4.9c-.6-3.23-1.17-6.46-1.74-9.69A.31.31,0,0,1,31.8,24.35Z"/><path class="cls-1" d="M32.26,8.9a5.41,5.41,0,0,1,2.21.86,5.71,5.71,0,0,1,2.18,6.84c-.18.48-.4.93-.59,1.4L34.6,18H33.3c.09-.55.18-1.06.25-1.57A11.29,11.29,0,0,0,33,11.8c-.25-.86-.48-1.73-.71-2.59C32.3,9.12,32.28,9,32.26,8.9Z"/><path class="cls-1" d="M15.68,8.91c-.22.82-.45,1.58-.64,2.36-.24,1-.5,2.06-.67,3.1a9,9,0,0,0,.21,3.38c0,.08,0,.16.05.27H12a.3.3,0,0,1-.21-.13,8,8,0,0,1-.89-3.68A5.67,5.67,0,0,1,15.68,8.91Z"/><path class="cls-1" d="M18.84,10.88a4.59,4.59,0,0,0,2.73,1.41,1.84,1.84,0,0,0,2.19-1.14c0-.11.11-.21.2-.38.1.21.19.36.27.53a1.8,1.8,0,0,0,2,1A4.54,4.54,0,0,0,29,10.94c.35,1.45-.43,2.55-1.75,2.54-2.2,0-4.41,0-6.61,0a1.7,1.7,0,0,1-1.8-1.8Z"/><path class="cls-1" d="M27.69,7.87l1.34.3A3.15,3.15,0,0,1,26.8,11c-1.4.39-1.42.19-1.92-1.06C26.63,9.25,26.85,9.08,27.69,7.87Z"/><path class="cls-1" d="M23.09,10a7.14,7.14,0,0,1-.5,1,.73.73,0,0,1-.45.27,3.25,3.25,0,0,1-3.27-3l1.36-.32A4.35,4.35,0,0,0,23.09,10Z"/><path class="cls-1" d="M15.5,20.28H12.05V19.16h1.14c.54,0,1.07,0,1.6,0a.41.41,0,0,1,.3.2C15.24,19.65,15.36,20,15.5,20.28Z"/><path class="cls-1" d="M35.88,19.16v1.1H32.42c.15-.33.29-.67.44-1a.23.23,0,0,1,.17-.1Z"/></svg>