<svg id="Layer_1" data-name="Layer 1" xmlns="http://www.w3.org/2000/svg" viewBox="0 0 48 48"><defs><style>.cls-1{fill:#113e23;}</style></defs><path class="cls-1" d="M7.46,28.37c.13,0,.27,0,.41,0H23v8.54H9.39v.68c0,.34,0,.67,0,1a1.12,1.12,0,0,1-.72,1.23H8.16a1.42,1.42,0,0,1-.7-.71Zm11.66,3.86a1,1,0,0,0,1,1,1,1,0,0,0,.94-.95,1,1,0,1,0-1.9,0Z"/><path class="cls-1" d="M7.46,24.5a1.14,1.14,0,0,1,1.21-.74q15.3,0,30.61,0A1.07,1.07,0,0,1,40.49,25c0,.49,0,1,0,1.52h-33Z"/><path class="cls-1" d="M7.46,39.14a1.42,1.42,0,0,0,.7.71h-.7Z"/><path class="cls-1" d="M40.49,28.42V34.7c0,1.37,0,2.75,0,4.13a1,1,0,0,1-.91,1,1,1,0,0,1-1-.8,6.12,6.12,0,0,1,0-.74V37H25V28.42ZM26.86,32.24a1,1,0,1,0,.95-1A.94.94,0,0,0,26.86,32.24Z"/><path class="cls-1" d="M24,16.11h7.09c.84,0,1.19.34,1.18,1.17a26.48,26.48,0,0,1-.1,2.82,5.78,5.78,0,0,1-.6,1.55.44.44,0,0,1-.35.19H16.75a.39.39,0,0,1-.38-.22,4.37,4.37,0,0,1-.66-2.13c0-.78,0-1.57,0-2.35a1,1,0,0,1,1.05-1Z"/><path class="cls-1" d="M24.94,14.17H23V9.77a2.91,2.91,0,0,1,5.78-.56,2.91,2.91,0,0,1,0,.51,1,1,0,0,1-.91,1,1,1,0,0,1-1-.9,2.58,2.58,0,0,0,0-.29,1,1,0,0,0-1-.74,1,1,0,0,0-.88,1c0,1.33,0,2.66,0,4Z"/><path class="cls-1" d="M21.07,14.16H19.14c0-.47,0-.93,0-1.38a1,1,0,0,1,1-.83,1,1,0,0,1,1,.87c0,.11,0,.21,0,.32Z"/><path class="cls-1" d="M28.81,14.16H26.88c0-.47,0-.93,0-1.38a1,1,0,0,1,1.91,0c0,.29,0,.58,0,.87Z"/><path class="cls-1" d="M19.12,32.23a1,1,0,1,1,1.9,0,1,1,0,0,1-.94.95A1,1,0,0,1,19.12,32.23Z"/><path class="cls-1" d="M26.86,32.24a1,1,0,1,1,1.9,0,1,1,0,1,1-1.9,0Z"/></svg>